<?xml version="1.0" encoding="UTF-8" standalone="no"?><!DOCTYPE svg PUBLIC "-//W3C//DTD SVG 1.1//EN" "http://www.w3.org/Graphics/SVG/1.1/DTD/svg11.dtd"><!-- Generated by graphviz version 2.40.1 (20161225.0304)
 --><!-- Title: TuringMachine Pages: 1 --><svg xmlns="http://www.w3.org/2000/svg" xmlns:xlink="http://www.w3.org/1999/xlink" width="2376pt" height="240pt" viewBox="0.00 0.00 2375.92 240.22">
<g id="graph0" class="graph" transform="scale(1 1) rotate(0) translate(4 236.2156)">
<title>TuringMachine</title>
<polygon fill="#ffffff" stroke="transparent" points="-4,4 -4,-236.2156 2371.9204,-236.2156 2371.9204,4 -4,4"/>
<!-- 0 -->
<g id="node1" class="node">
<title>0</title>
<ellipse fill="none" stroke="#000000" cx="78.759" cy="-154" rx="78.5187" ry="29.3315"/>
<text text-anchor="middle" x="78.759" y="-158.2" font-family="Times,serif" font-size="14.00" fill="#000000">State 0: A -&gt; _ R</text>
<text text-anchor="middle" x="78.759" y="-141.4" font-family="Times,serif" font-size="14.00" fill="#000000">_ -&gt; _ R</text>
</g>
<!-- 1 -->
<g id="node2" class="node">
<title>1</title>
<ellipse fill="none" stroke="#000000" cx="323.972" cy="-108" rx="80.9114" ry="29.3315"/>
<text text-anchor="middle" x="323.972" y="-112.2" font-family="Times,serif" font-size="14.00" fill="#000000">State 1: A -&gt; A R</text>
<text text-anchor="middle" x="323.972" y="-95.4" font-family="Times,serif" font-size="14.00" fill="#000000">_ -&gt; _ R</text>
</g>
<!-- 0&#45;&gt;1 -->
<g id="edge1" class="edge">
<title>0-&gt;1</title>
<path fill="none" stroke="#000000" d="M149.3558,-140.7566C178.2111,-135.3436 211.7845,-129.0455 241.7387,-123.4263"/>
<polygon fill="#000000" stroke="#000000" points="242.5631,-126.8328 251.7463,-121.549 241.2724,-119.9528 242.5631,-126.8328"/>
<text text-anchor="middle" x="200.2671" y="-139.2" font-family="Times,serif" font-size="14.00" fill="#000000">A -&gt; _ R</text>
</g>
<!-- 7 -->
<g id="node8" class="node">
<title>7</title>
<ellipse fill="none" stroke="#000000" cx="1300.7868" cy="-70" rx="80.9114" ry="29.3315"/>
<text text-anchor="middle" x="1300.7868" y="-74.2" font-family="Times,serif" font-size="14.00" fill="#000000">State 7: A -&gt; A R</text>
<text text-anchor="middle" x="1300.7868" y="-57.4" font-family="Times,serif" font-size="14.00" fill="#000000">_ -&gt; _ L</text>
</g>
<!-- 0&#45;&gt;7 -->
<g id="edge2" class="edge">
<title>0-&gt;7</title>
<path fill="none" stroke="#000000" d="M141.4321,-171.9792C190.6367,-184.5135 261.104,-199 323.972,-199 323.972,-199 323.972,-199 1050.2705,-199 1118.0532,-199 1141.6903,-213.2662 1201.8312,-182 1234.304,-165.1179 1261.0346,-132.837 1278.4922,-107.252"/>
<polygon fill="#000000" stroke="#000000" points="1281.4445,-109.1329 1284.0521,-98.864 1275.6099,-105.2655 1281.4445,-109.1329"/>
<text text-anchor="middle" x="684.9246" y="-203.2" font-family="Times,serif" font-size="14.00" fill="#000000">_ -&gt; _ R</text>
</g>
<!-- 1&#45;&gt;1 -->
<g id="edge3" class="edge">
<title>1-&gt;1</title>
<path fill="none" stroke="#000000" d="M301.1473,-136.2332C300.3989,-146.7548 308.0072,-155.4156 323.972,-155.4156 334.4489,-155.4156 341.327,-151.6857 344.6061,-146.1478"/>
<polygon fill="#000000" stroke="#000000" points="348.0568,-146.7529 346.7967,-136.2332 341.2216,-145.2426 348.0568,-146.7529"/>
<text text-anchor="middle" x="323.972" y="-159.6156" font-family="Times,serif" font-size="14.00" fill="#000000">A -&gt; A R</text>
</g>
<!-- 2 -->
<g id="node3" class="node">
<title>2</title>
<ellipse fill="none" stroke="#000000" cx="565.5241" cy="-108" rx="78.4097" ry="29.3315"/>
<text text-anchor="middle" x="565.5241" y="-112.2" font-family="Times,serif" font-size="14.00" fill="#000000">State 2: A -&gt; _ L</text>
<text text-anchor="middle" x="565.5241" y="-95.4" font-family="Times,serif" font-size="14.00" fill="#000000">_ -&gt; _ L</text>
</g>
<!-- 1&#45;&gt;2 -->
<g id="edge4" class="edge">
<title>1-&gt;2</title>
<path fill="none" stroke="#000000" d="M405.0773,-108C428.1196,-108 453.329,-108 476.798,-108"/>
<polygon fill="#000000" stroke="#000000" points="477.0899,-111.5001 487.0899,-108 477.0899,-104.5001 477.0899,-111.5001"/>
<text text-anchor="middle" x="446.1236" y="-112.2" font-family="Times,serif" font-size="14.00" fill="#000000">_ -&gt; _ R</text>
</g>
<!-- 3 -->
<g id="node4" class="node">
<title>3</title>
<ellipse fill="none" stroke="#000000" cx="1789.8249" cy="-168" rx="80.3027" ry="29.3315"/>
<text text-anchor="middle" x="1789.8249" y="-172.2" font-family="Times,serif" font-size="14.00" fill="#000000">State 3: A -&gt; A L</text>
<text text-anchor="middle" x="1789.8249" y="-155.4" font-family="Times,serif" font-size="14.00" fill="#000000">_ -&gt; _ R</text>
</g>
<!-- 2&#45;&gt;3 -->
<g id="edge5" class="edge">
<title>2-&gt;3</title>
<path fill="none" stroke="#000000" d="M623.1814,-128.037C671.5224,-143.0457 742.6906,-161 806.5218,-161 806.5218,-161 806.5218,-161 1541.5549,-161 1593.9793,-161 1652.6057,-162.5788 1699.7191,-164.2369"/>
<polygon fill="#000000" stroke="#000000" points="1699.7778,-167.7411 1709.897,-164.6025 1700.0292,-160.7456 1699.7778,-167.7411"/>
<text text-anchor="middle" x="1175.5287" y="-165.2" font-family="Times,serif" font-size="14.00" fill="#000000">A -&gt; _ L</text>
</g>
<!-- 6 -->
<g id="node7" class="node">
<title>6</title>
<ellipse fill="none" stroke="#000000" cx="806.5218" cy="-70" rx="80.3027" ry="29.3315"/>
<text text-anchor="middle" x="806.5218" y="-74.2" font-family="Times,serif" font-size="14.00" fill="#000000">State 6: A -&gt; A L</text>
<text text-anchor="middle" x="806.5218" y="-57.4" font-family="Times,serif" font-size="14.00" fill="#000000">_ -&gt; _ R</text>
</g>
<!-- 2&#45;&gt;6 -->
<g id="edge6" class="edge">
<title>2-&gt;6</title>
<path fill="none" stroke="#000000" d="M637.8313,-96.5987C664.5036,-92.3931 694.9474,-87.5928 722.5632,-83.2384"/>
<polygon fill="#000000" stroke="#000000" points="723.2644,-86.6712 732.5972,-81.6563 722.1741,-79.7566 723.2644,-86.6712"/>
<text text-anchor="middle" x="684.9246" y="-97.2" font-family="Times,serif" font-size="14.00" fill="#000000">_ -&gt; _ L</text>
</g>
<!-- 3&#45;&gt;3 -->
<g id="edge7" class="edge">
<title>3-&gt;3</title>
<path fill="none" stroke="#000000" d="M1766.2518,-196.2332C1765.479,-206.7548 1773.3367,-215.4156 1789.8249,-215.4156 1800.6454,-215.4156 1807.7489,-211.6857 1811.1356,-206.1478"/>
<polygon fill="#000000" stroke="#000000" points="1814.5855,-206.7613 1813.398,-196.2332 1807.7609,-205.2039 1814.5855,-206.7613"/>
<text text-anchor="middle" x="1789.8249" y="-219.6156" font-family="Times,serif" font-size="14.00" fill="#000000">A -&gt; A L</text>
</g>
<!-- 4 -->
<g id="node5" class="node">
<title>4</title>
<ellipse fill="none" stroke="#000000" cx="2040.5925" cy="-168" rx="78.5187" ry="29.3315"/>
<text text-anchor="middle" x="2040.5925" y="-172.2" font-family="Times,serif" font-size="14.00" fill="#000000">State 4: A -&gt; _ R</text>
<text text-anchor="middle" x="2040.5925" y="-155.4" font-family="Times,serif" font-size="14.00" fill="#000000">_ -&gt; Halt</text>
</g>
<!-- 3&#45;&gt;4 -->
<g id="edge8" class="edge">
<title>3-&gt;4</title>
<path fill="none" stroke="#000000" d="M1870.5497,-168C1896.4494,-168 1925.2733,-168 1951.7225,-168"/>
<polygon fill="#000000" stroke="#000000" points="1951.7321,-171.5001 1961.732,-168 1951.732,-164.5001 1951.7321,-171.5001"/>
<text text-anchor="middle" x="1918.5048" y="-172.2" font-family="Times,serif" font-size="14.00" fill="#000000">_ -&gt; _ R</text>
</g>
<!-- 5 -->
<g id="node6" class="node">
<title>5</title>
<ellipse fill="none" stroke="#000000" cx="2286.9648" cy="-168" rx="80.9114" ry="29.3315"/>
<text text-anchor="middle" x="2286.9648" y="-172.2" font-family="Times,serif" font-size="14.00" fill="#000000">State 5: A -&gt; A R</text>
<text text-anchor="middle" x="2286.9648" y="-155.4" font-family="Times,serif" font-size="14.00" fill="#000000">_ -&gt; Halt</text>
</g>
<!-- 4&#45;&gt;5 -->
<g id="edge9" class="edge">
<title>4-&gt;5</title>
<path fill="none" stroke="#000000" d="M2119.5629,-168C2143.8089,-168 2170.6898,-168 2195.6879,-168"/>
<polygon fill="#000000" stroke="#000000" points="2195.9014,-171.5001 2205.9014,-168 2195.9013,-164.5001 2195.9014,-171.5001"/>
<text text-anchor="middle" x="2162.6803" y="-172.2" font-family="Times,serif" font-size="14.00" fill="#000000">A -&gt; _ R</text>
</g>
<!-- 4&#45;&gt;5 -->
<g id="edge10" class="edge">
<title>4-&gt;5</title>
<path fill="none" stroke="#000000" d="M2106.6554,-151.8587C2116.8764,-149.9251 2127.3562,-148.2622 2137.3515,-147.2 2159.7399,-144.8208 2165.6153,-144.8719 2188.0091,-147.2 2194.8135,-147.9074 2201.8393,-148.8814 2208.8614,-150.0244"/>
<polygon fill="#000000" stroke="#000000" points="2208.6689,-153.5434 2219.1207,-151.8087 2209.8684,-146.6469 2208.6689,-153.5434"/>
<text text-anchor="middle" x="2162.6803" y="-151.2" font-family="Times,serif" font-size="14.00" fill="#000000">_ -&gt; Halt</text>
</g>
<!-- 6&#45;&gt;6 -->
<g id="edge11" class="edge">
<title>6-&gt;6</title>
<path fill="none" stroke="#000000" d="M784.0437,-98.7031C783.5603,-109.0114 791.053,-117.4156 806.5218,-117.4156 816.4314,-117.4156 823.0677,-113.9665 826.4306,-108.7773"/>
<polygon fill="#000000" stroke="#000000" points="829.92,-109.2579 828.9998,-98.7031 823.1371,-107.528 829.92,-109.2579"/>
<text text-anchor="middle" x="806.5218" y="-121.6156" font-family="Times,serif" font-size="14.00" fill="#000000">A -&gt; A L</text>
</g>
<!-- 9 -->
<g id="node10" class="node">
<title>9</title>
<ellipse fill="none" stroke="#000000" cx="1050.2705" cy="-70" rx="80.9114" ry="29.3315"/>
<text text-anchor="middle" x="1050.2705" y="-74.2" font-family="Times,serif" font-size="14.00" fill="#000000">State 9: A -&gt; A R</text>
<text text-anchor="middle" x="1050.2705" y="-57.4" font-family="Times,serif" font-size="14.00" fill="#000000">_ -&gt; _ R</text>
</g>
<!-- 6&#45;&gt;9 -->
<g id="edge12" class="edge">
<title>6-&gt;9</title>
<path fill="none" stroke="#000000" d="M887.0097,-70C910.0635,-70 935.3592,-70 959.0101,-70"/>
<polygon fill="#000000" stroke="#000000" points="959.0343,-73.5001 969.0342,-70 959.0342,-66.5001 959.0343,-73.5001"/>
<text text-anchor="middle" x="928.1189" y="-74.2" font-family="Times,serif" font-size="14.00" fill="#000000">_ -&gt; _ R</text>
</g>
<!-- 7&#45;&gt;7 -->
<g id="edge13" class="edge">
<title>7-&gt;7</title>
<path fill="none" stroke="#000000" d="M1278.3088,-98.7031C1277.8254,-109.0114 1285.3181,-117.4156 1300.7868,-117.4156 1310.6965,-117.4156 1317.3328,-113.9665 1320.6957,-108.7773"/>
<polygon fill="#000000" stroke="#000000" points="1324.1851,-109.2579 1323.2649,-98.7031 1317.4022,-107.528 1324.1851,-109.2579"/>
<text text-anchor="middle" x="1300.7868" y="-121.6156" font-family="Times,serif" font-size="14.00" fill="#000000">A -&gt; A R</text>
</g>
<!-- 8 -->
<g id="node9" class="node">
<title>8</title>
<ellipse fill="none" stroke="#000000" cx="1541.5549" cy="-70" rx="78.4097" ry="29.3315"/>
<text text-anchor="middle" x="1541.5549" y="-74.2" font-family="Times,serif" font-size="14.00" fill="#000000">State 8: A -&gt; _ L</text>
<text text-anchor="middle" x="1541.5549" y="-57.4" font-family="Times,serif" font-size="14.00" fill="#000000">_ -&gt; _ L</text>
</g>
<!-- 7&#45;&gt;8 -->
<g id="edge14" class="edge">
<title>7-&gt;8</title>
<path fill="none" stroke="#000000" d="M1381.9643,-70C1404.797,-70 1429.7421,-70 1452.983,-70"/>
<polygon fill="#000000" stroke="#000000" points="1453.1765,-73.5001 1463.1764,-70 1453.1764,-66.5001 1453.1765,-73.5001"/>
<text text-anchor="middle" x="1422.5464" y="-74.2" font-family="Times,serif" font-size="14.00" fill="#000000">_ -&gt; _ L</text>
</g>
<!-- 8&#45;&gt;3 -->
<g id="edge15" class="edge">
<title>8-&gt;3</title>
<path fill="none" stroke="#000000" d="M1595.732,-91.3854C1633.9055,-106.4537 1685.1838,-126.6949 1725.4469,-142.588"/>
<polygon fill="#000000" stroke="#000000" points="1724.319,-145.9055 1734.9057,-146.3216 1726.8892,-139.3944 1724.319,-145.9055"/>
<text text-anchor="middle" x="1662.1167" y="-128.2" font-family="Times,serif" font-size="14.00" fill="#000000">A -&gt; _ L</text>
</g>
<!-- 10 -->
<g id="node11" class="node">
<title>10</title>
<ellipse fill="none" stroke="#000000" cx="1789.8249" cy="-57" rx="85.2023" ry="29.3315"/>
<text text-anchor="middle" x="1789.8249" y="-61.2" font-family="Times,serif" font-size="14.00" fill="#000000">State 10: A -&gt; A L</text>
<text text-anchor="middle" x="1789.8249" y="-44.4" font-family="Times,serif" font-size="14.00" fill="#000000">_ -&gt; Halt</text>
</g>
<!-- 8&#45;&gt;10 -->
<g id="edge16" class="edge">
<title>8-&gt;10</title>
<path fill="none" stroke="#000000" d="M1619.0879,-65.9402C1643.0969,-64.683 1669.8268,-63.2834 1694.8758,-61.9718"/>
<polygon fill="#000000" stroke="#000000" points="1695.319,-65.4534 1705.1222,-61.4352 1694.9529,-58.463 1695.319,-65.4534"/>
<text text-anchor="middle" x="1662.1167" y="-69.2" font-family="Times,serif" font-size="14.00" fill="#000000">_ -&gt; _ L</text>
</g>
<!-- 9&#45;&gt;7 -->
<g id="edge17" class="edge">
<title>9-&gt;7</title>
<path fill="none" stroke="#000000" d="M1131.26,-70C1156.2478,-70 1183.9329,-70 1209.5612,-70"/>
<polygon fill="#000000" stroke="#000000" points="1209.6474,-73.5001 1219.6474,-70 1209.6473,-66.5001 1209.6474,-73.5001"/>
<text text-anchor="middle" x="1175.5287" y="-74.2" font-family="Times,serif" font-size="14.00" fill="#000000">A -&gt; A R</text>
</g>
<!-- 11 -->
<g id="node12" class="node">
<title>11</title>
<ellipse fill="none" stroke="#000000" cx="2040.5925" cy="-23" rx="27" ry="18"/>
<text text-anchor="middle" x="2040.5925" y="-18.8" font-family="Times,serif" font-size="14.00" fill="#000000">11</text>
</g>
<!-- 9&#45;&gt;11 -->
<g id="edge18" class="edge">
<title>9-&gt;11</title>
<path fill="none" stroke="#000000" d="M1101.4044,-46.8854C1151.2306,-26.4959 1229.6624,0 1300.7868,0 1300.7868,0 1300.7868,0 1789.8249,0 1866.194,0 1955.1008,-10.709 2003.8769,-17.5123"/>
<polygon fill="#000000" stroke="#000000" points="2003.5522,-21.0012 2013.9448,-18.941 2004.5358,-14.0706 2003.5522,-21.0012"/>
<text text-anchor="middle" x="1541.5549" y="-4.2" font-family="Times,serif" font-size="14.00" fill="#000000">_ -&gt; _ R</text>
</g>
<!-- 10&#45;&gt;10 -->
<g id="edge19" class="edge">
<title>10-&gt;10</title>
<path fill="none" stroke="#000000" d="M1766.223,-85.7031C1765.7154,-96.0114 1773.5828,-104.4156 1789.8249,-104.4156 1800.2301,-104.4156 1807.1982,-100.9665 1810.7292,-95.7773"/>
<polygon fill="#000000" stroke="#000000" points="1814.2211,-96.2681 1813.4269,-85.7031 1807.4593,-94.4574 1814.2211,-96.2681"/>
<text text-anchor="middle" x="1789.8249" y="-108.6156" font-family="Times,serif" font-size="14.00" fill="#000000">A -&gt; A L</text>
</g>
<!-- 10&#45;&gt;11 -->
<g id="edge20" class="edge">
<title>10-&gt;11</title>
<path fill="none" stroke="#000000" d="M1869.5139,-46.1955C1914.4834,-40.0983 1968.5378,-32.7695 2003.6828,-28.0044"/>
<polygon fill="#000000" stroke="#000000" points="2004.5127,-31.424 2013.9518,-26.6121 2003.5722,-24.4874 2004.5127,-31.424"/>
<text text-anchor="middle" x="1918.5048" y="-47.2" font-family="Times,serif" font-size="14.00" fill="#000000">_ -&gt; Halt</text>
</g>
</g>
</svg>